<?xml version="1.0" encoding="utf-8"?>
<!-- Generator: Adobe Illustrator 16.0.0, SVG Export Plug-In . SVG Version: 6.00 Build 0)  -->
<!DOCTYPE svg PUBLIC "-//W3C//DTD SVG 1.1//EN" "http://www.w3.org/Graphics/SVG/1.1/DTD/svg11.dtd">
<svg version="1.1" id="Layer_1" xmlns="http://www.w3.org/2000/svg" xmlns:xlink="http://www.w3.org/1999/xlink" x="0px" y="0px"
	 width="64px" height="64px" viewBox="0 0 64 64" enable-background="new 0 0 64 64" xml:space="preserve">
<g>
	<path fill="#FFFFFF" d="M28.746,45.217c-4.833,1.681-9.658,2.376-13.965,1.616c-10.168-2.44-18.012-19.079,7.71-34.544
		C8.847,18.578-1.213,53.321,28.746,45.217z"/>
	<path fill="#FFFFFF" d="M43.225,21.992c1.698,3.845-0.583,10.676-6.393,13.877c-5.806,3.198-12.073,2.361-14.636-2.289
		c-2.563-4.651,0.49-10.592,6.297-13.789C34.299,16.59,40.658,17.339,43.225,21.992z"/>
	<path fill="#FFFFFF" d="M46.683,4.377c14.479-3.868,14.572,15.278,4.055,26.348c-9.333,9.824-24.468,18.132-35.956,16.108
		c-10.168-2.44-18.012-19.079,7.71-34.544c-11.8,6.555-18.153,16.164-20.247,24.628c-2.101,14.071,9.722,22.646,19.199,23.264
		c13.363,0.657,26.613-9.288,33.422-19.745C67.815,22.005,61.971-0.116,46.683,4.377z M4.117,44.049
		c-0.267-0.863-0.462-1.766-0.601-2.687c0.135-0.859,0.395-1.707,0.754-2.238c0.193,0.619,0.53,1.425,0.809,1.986
		C4.762,41.757,4.361,42.938,4.117,44.049z M8.072,51.049c-1.167-1.313-2.16-2.796-2.938-4.411c0.157-1.319,0.523-2.821,0.835-3.804
		c0.648,1.146,1.533,2.356,2.731,3.462C8.402,47.61,8.134,49.39,8.072,51.049z M9.977,52.913c-0.167-1.812-0.138-3.929,0.221-5.414
		c1.713,1.178,3.895,2.077,6.648,2.396c0.07,1.82,0.455,4.724,0.969,7.057C14.961,56.268,12.262,54.867,9.977,52.913z
		 M20.424,57.371c-0.803-2.282-1.57-5.664-1.697-7.348c2.583,0.011,5.468-0.453,8.519-1.354c0.9,1.772,2.209,4.727,2.766,7.488
		C26.762,57.021,23.68,57.805,20.424,57.371z M32.03,55.555c-0.62-2.484-1.738-5.876-2.486-7.64
		c2.566-0.922,5.213-2.145,7.869-3.648c0.866,1.334,2.445,5.028,3.059,7.272C37.765,53.246,34.929,54.62,32.03,55.555z
		 M42.581,50.127c-0.686-2.547-2.119-5.358-3.276-6.967c2.782-1.717,5.544-3.743,8.202-6.062c1.102,1.701,2.137,4.335,2.655,6.229
		C47.861,45.867,45.311,48.168,42.581,50.127z M51.78,41.472c-0.682-1.908-1.818-4.295-2.752-5.726
		c1.087-1.011,2.158-2.069,3.195-3.181c0.559-0.582,1.072-1.186,1.56-1.797c0.731,1.18,1.621,3.161,2.167,4.747
		C54.723,37.585,53.324,39.584,51.78,41.472z M56.745,34.122c-0.401-1.525-1.176-3.299-2.029-4.599
		c1.15-1.642,2.072-3.37,2.78-5.129c0.692,1.146,1.397,2.625,1.879,3.929C58.661,30.291,57.778,32.233,56.745,34.122z
		 M58.062,22.875c0.479-1.45,0.807-2.899,0.999-4.32c0.711,0.917,1.491,2.373,1.952,3.59c-0.247,1.46-0.584,2.92-1.029,4.373
		C59.525,25.25,58.785,23.852,58.062,22.875z"/>
	<g>
		<path fill="#FFFFFF" d="M61.123,22.436c0.034-0.228,0.073-0.458,0.105-0.686c-0.032-0.075-0.064-0.151-0.097-0.226
			c0,0.002,0,0.002-0.002,0.006c-0.554-1.287-1.229-2.583-1.975-3.676c0-0.002,0-0.002,0-0.004
			c-0.049-0.075-0.097-0.146-0.146-0.219c-0.036,0.23-0.082,0.469-0.121,0.705l0,0c-0.232,1.364-0.602,2.761-1.109,4.171l0,0
			c-0.029,0.075-0.053,0.149-0.079,0.224c0.943,1.224,1.775,2.81,2.363,4.337c0.02-0.061,0.032-0.119,0.051-0.178
			c0-0.004-0.002-0.006-0.002-0.006c0.44-1.49,0.768-2.983,1.002-4.476C61.115,22.417,61.119,22.425,61.123,22.436z M59.983,26.518
			c-0.458-1.268-1.198-2.666-1.922-3.643c0.479-1.45,0.807-2.899,0.999-4.32c0.711,0.917,1.491,2.373,1.952,3.59
			C60.766,23.605,60.429,25.065,59.983,26.518z"/>
		<path fill="#FFFFFF" d="M59.676,28.29c-0.039-0.141-0.088-0.276-0.131-0.413c-0.006,0.004-0.006,0.008-0.008,0.01
			c-0.453-1.378-1.085-2.794-1.833-3.989c0.004-0.008,0.006-0.014,0.008-0.019c-0.095-0.146-0.188-0.299-0.287-0.439
			c-0.795,1.95-1.857,3.898-3.203,5.774c1.128,1.56,2.055,3.754,2.553,5.689c1.092-2.02,2.013-4.093,2.749-6.196
			c0,0.002,0,0.002,0,0.002C59.571,28.57,59.628,28.43,59.676,28.29z M56.745,34.122c-0.401-1.525-1.176-3.299-2.029-4.599
			c1.15-1.642,2.072-3.37,2.78-5.129c0.692,1.146,1.397,2.625,1.879,3.929C58.661,30.291,57.778,32.233,56.745,34.122z"/>
		<path fill="#FFFFFF" d="M56.126,36.041c0.123-0.214,0.254-0.423,0.371-0.639c-0.043-0.188-0.093-0.376-0.146-0.562
			c0,0.004-0.002,0.008-0.002,0.008c-0.608-2.175-1.729-4.157-2.486-5.147c-0.624,0.837-1.309,1.653-2.051,2.454
			c-1.084,1.159-2.193,2.262-3.319,3.31c1.112,1.421,2.615,4.649,3.3,6.898c0.071-0.085,0.136-0.174,0.203-0.263v-0.002
			c1.533-1.924,2.916-3.958,4.13-6.06V36.041z M51.78,41.472c-0.682-1.908-1.818-4.295-2.752-5.726
			c1.087-1.011,2.158-2.069,3.195-3.181c0.559-0.582,1.072-1.186,1.56-1.797c0.731,1.18,1.621,3.161,2.167,4.747
			C54.723,37.585,53.324,39.584,51.78,41.472z"/>
		<path fill="#FFFFFF" d="M50.919,43.417c-0.355-1.555-1.355-4.54-2.919-6.736c0.002-0.003,0.006-0.005,0.01-0.011
			c-0.111-0.152-0.223-0.306-0.34-0.451c-2.904,2.617-5.918,4.881-8.938,6.755c1.188,1.812,3.118,5.227,3.653,8.355
			c0.141-0.099,0.277-0.204,0.412-0.306c0-0.006-0.002-0.008-0.002-0.01c0.669-0.492,1.327-0.998,1.972-1.529
			c0.009-0.01,0.018-0.014,0.027-0.021c-0.005,0.004-0.01,0.006-0.015,0.01c1.982-1.638,3.844-3.466,5.563-5.418
			c0.002,0.004,0.004,0.011,0.006,0.015C50.538,43.854,50.733,43.637,50.919,43.417z M42.581,50.127
			c-0.686-2.547-2.119-5.358-3.276-6.967c2.782-1.717,5.544-3.743,8.202-6.062c1.102,1.701,2.137,4.335,2.655,6.229
			C47.861,45.867,45.311,48.168,42.581,50.127z"/>
		<path fill="#FFFFFF" d="M40.686,52.497c0.263-0.174,0.527-0.342,0.786-0.521c-0.071-0.276-0.159-0.58-0.257-0.897c0,0,0,0-0.002,0
			c-0.703-2.304-1.979-5.413-3.066-7.22c0.003,0,0.005-0.002,0.007-0.002c-0.081-0.136-0.162-0.267-0.242-0.388
			c-2.998,1.801-5.994,3.216-8.871,4.237c0.704,1.797,1.875,5.421,2.568,8c0,0-0.001,0-0.004,0c0.107,0.394,0.202,0.76,0.282,1.094
			c0.132-0.043,0.264-0.092,0.396-0.14c0-0.002,0-0.009-0.002-0.011c2.889-0.983,5.711-2.412,8.401-4.171
			C40.684,52.484,40.686,52.492,40.686,52.497z M32.03,55.555c-0.62-2.484-1.738-5.876-2.486-7.64
			c2.566-0.922,5.213-2.145,7.869-3.648c0.866,1.334,2.445,5.028,3.059,7.272C37.765,53.246,34.929,54.62,32.03,55.555z"/>
		<path fill="#FFFFFF" d="M30.452,56.054c-0.001-0.004-0.002-0.008-0.002-0.014h-0.002c-0.638-2.457-1.809-5.575-2.664-7.521
			c0.001,0,0.001,0,0.001,0c-0.05-0.119-0.1-0.234-0.149-0.344c-3.368,1.053-6.543,1.533-9.356,1.419
			c0.007,0.132,0.018,0.28,0.034,0.442c0.002,0,0.004,0,0.006,0c0.154,1.581,0.809,4.505,1.435,6.678c0,0,0,0-0.002,0
			c0.008,0.028,0.022,0.07,0.033,0.104c0.068,0.238,0.134,0.449,0.201,0.663c0.052,0.165,0.103,0.326,0.152,0.477
			c0.009,0.025,0.016,0.055,0.025,0.08l0,0c0.045,0.137,0.087,0.261,0.121,0.357c3.488,0.465,6.933-0.245,10.427-1.238
			C30.642,56.811,30.552,56.439,30.452,56.054z M20.424,57.371c-0.803-2.282-1.57-5.664-1.697-7.348
			c2.583,0.011,5.468-0.453,8.519-1.354c0.9,1.772,2.209,4.727,2.766,7.488C26.762,57.021,23.68,57.805,20.424,57.371z"/>
		<path fill="#FFFFFF" d="M18.107,58.183c0.138,0.025,0.277,0.05,0.417,0.069c-0.11-0.357-0.213-0.747-0.313-1.145
			c-0.642-2.585-1.065-5.87-1.019-7.665c-3.074-0.365-5.494-1.463-7.354-2.868c-0.055,0.171-0.108,0.362-0.156,0.561h0.002
			c-0.334,1.354-0.499,3.305-0.384,5.188c-0.003-0.002-0.005-0.005-0.008-0.005c0.002,0.045,0.014,0.083,0.016,0.13
			c0.035,0.509,0.084,1.018,0.164,1.5c0.233,0.211,0.47,0.412,0.714,0.611c0-0.004-0.002-0.008-0.003-0.011
			c2.293,1.875,5.001,3.148,7.922,3.627C18.107,58.179,18.107,58.181,18.107,58.183z M9.977,52.913
			c-0.167-1.812-0.138-3.929,0.221-5.414c1.713,1.178,3.895,2.077,6.648,2.396c0.07,1.82,0.455,4.724,0.969,7.057
			C14.961,56.268,12.262,54.867,9.977,52.913z"/>
		<path fill="#FFFFFF" d="M9.001,45.888c-1.5-1.321-2.572-2.831-3.283-4.222c-0.049,0.133-0.101,0.278-0.151,0.431l0,0
			c-0.325,0.958-0.646,2.258-0.863,3.627l0,0v0.002c-0.058,0.363-0.109,0.728-0.149,1.094c0.154,0.387,0.325,0.765,0.505,1.138
			c0-0.011,0-0.02,0-0.03c0.798,1.693,1.816,3.235,3.015,4.584c0,0.004,0,0.008,0,0.016c0.078,0.083,0.15,0.172,0.228,0.257
			c-0.036-0.452-0.045-0.927-0.04-1.406C8.282,49.4,8.621,47.29,9.001,45.888z M5.968,42.834c0.648,1.146,1.533,2.356,2.731,3.462
			c-0.297,1.314-0.565,3.094-0.627,4.753c-1.167-1.313-2.16-2.796-2.938-4.411C5.291,45.318,5.656,43.816,5.968,42.834z"/>
		<path fill="#FFFFFF" d="M5.162,41.225c0.021-0.044,0.042-0.078,0.062-0.108c0.05-0.085,0.099-0.157,0.141-0.194
			c-0.027-0.046-0.058-0.103-0.088-0.157l0,0c-0.299-0.54-0.657-1.385-0.793-1.957c-0.019-0.081-0.035-0.161-0.044-0.228
			c-0.012-0.079-0.014-0.15-0.01-0.205c-0.104,0.081-0.199,0.183-0.291,0.289c0.001,0.004,0.004,0.015,0.004,0.019
			c-0.341,0.4-0.61,0.958-0.771,1.734c0-0.002,0-0.002,0-0.002c-0.066,0.312-0.115,0.646-0.146,1.022
			c0.049,0.446,0.115,0.883,0.189,1.316c-0.002-0.037,0-0.078,0-0.117c0.136,0.806,0.308,1.59,0.531,2.354
			c0,0.009-0.002,0.021-0.004,0.03c0.046,0.158,0.089,0.321,0.14,0.478c0.017-0.299,0.062-0.639,0.12-0.986
			C4.408,43.254,4.83,41.852,5.162,41.225z M3.517,41.362c0.135-0.859,0.395-1.707,0.754-2.238c0.193,0.619,0.53,1.425,0.809,1.986
			c-0.317,0.646-0.718,1.827-0.962,2.938C3.85,43.186,3.655,42.283,3.517,41.362z"/>
	</g>
</g>
</svg>
